<?xml version="1.0" encoding="utf-8"?>
<!-- Generator: Adobe Illustrator 23.0.6, SVG Export Plug-In . SVG Version: 6.00 Build 0)  -->
<svg version="1.1" id="Layer_1" xmlns="http://www.w3.org/2000/svg" xmlns:xlink="http://www.w3.org/1999/xlink" x="0px" y="0px"
	 viewBox="0 0 409.4 198.4" style="enable-background:new 0 0 409.4 198.4;" xml:space="preserve">
<style type="text/css">
	.st0{fill:#FAF6F3;}
</style>
<g>
	<path class="st0" d="M98.9,106.1c-2.6,11.6-6.3,23-11.6,33.7c-5.3,10.7-12,20.6-20.3,29c-8.2,8.5-17.9,15.4-28.5,20.3
		c10.2-5.6,19.2-13.2,26.6-22c7.4-8.8,13.2-18.8,17.5-29.4c4.3-10.6,7.1-21.7,8.7-33c1.6-11.3,2.1-22.7,1.6-34h-29
		c2.8,12.2,4.5,24.6,4.6,37c0,12.3-1.7,24.7-5.8,36.6c-4.1,11.8-10.7,23.2-20.1,32.7c-4.7,4.7-10.1,9-16.1,12.5
		c-6,3.5-12.6,6.3-19.8,7.7c7.2,1.4,14.9,1.4,22.5,0.4c7.7-1.1,15.3-3.2,22.7-6.3c14.8-6.2,28.4-16.3,39.7-28.8
		c11.3-12.5,20.2-27.4,26.8-43c6.6-15.7,11.1-32.2,13.9-48.7h-29C102.8,82.6,101.4,94.5,98.9,106.1z"/>
	<path class="st0" d="M49.8,89.2c0.9-12.7,3.6-25.3,8.7-37.2c5-11.9,12.5-23.1,22.4-32.4c4.9-4.6,10.5-8.7,16.6-12
		c6.1-3.3,12.8-5.9,20-7c-7.2-1.1-14.7-0.6-22.1,0.9c-7.4,1.5-14.7,4-21.7,7.4c-14,6.7-26.6,16.9-37,29.1
		C26.2,50.3,18,64.7,12.1,79.9c-6,15.2-9.8,31.2-11.9,47.3h51.8C49.8,114.6,48.9,101.9,49.8,89.2z"/>
	<path class="st0" d="M168.3,75.5c-3.9,3.5-5.9,8.3-5.9,14.5c0,5.7,1.8,10.3,5.4,13.8c3.6,3.5,8.4,5.2,14.4,5.2h2.7l5-8.9l-0.5-0.2
		l-1.2,1c-0.5,0.4-1,0.7-1.5,0.9c-0.5,0.2-1.1,0.3-1.8,0.3h-2.1c-4.3,0-7.5-1-9.6-3.1c-2.1-2-3.2-5.1-3.2-9.3c0-4,1.2-7.1,3.6-9.3
		c2.4-2.1,5.9-3.2,10.5-3.2h8.8v32.2c0,4.4-0.6,7.3-1.7,8.7c-1.2,1.4-3.3,2.2-6.4,2.2h-12.2l-4.3,7h13.2c6.8,0,11.6-1.3,14.4-3.8
		c2.8-2.5,4.2-6.9,4.2-13.1v-37c0-0.3,0.1-0.5,0.2-0.8c0.1-0.3,0.3-0.5,0.5-0.7l1-1v-0.6h-17.5C177.6,70.2,172.2,72,168.3,75.5z"/>
	<path class="st0" d="M237.3,70.8l1.1,1c0.2,0.2,0.3,0.5,0.4,0.7c0.1,0.2,0.1,0.5,0.1,0.8V102h-8.8c-3.3,0-5.7-0.8-7.1-2.4
		c-1.4-1.6-2.1-4.4-2.1-8.2v-18c0-0.3,0-0.6,0.1-0.8c0.1-0.2,0.2-0.4,0.4-0.7l1.1-1v-0.6h-10.8v0.6l1.1,1c0.2,0.2,0.4,0.5,0.5,0.7
		c0.1,0.2,0.1,0.5,0.1,0.8v18c0,5.9,1.4,10.3,4.2,13.2c2.8,2.9,6.9,4.4,12.5,4.4h5.8l2.9-2.9l0.2,0.2v2.8h8.9v-0.6l-1.1-1
		c-0.2-0.2-0.3-0.4-0.4-0.7c-0.1-0.3-0.1-0.5-0.1-0.9V73.3c0-0.3,0-0.5,0.1-0.8c0.1-0.2,0.2-0.5,0.4-0.7l1.1-1v-0.6h-10.8V70.8z"/>
	<path class="st0" d="M263.3,65.5c1.3,0,2.4-0.5,3.3-1.4c0.9-0.9,1.4-2,1.4-3.4c0-1.3-0.5-2.4-1.4-3.3c-0.9-0.9-2-1.4-3.3-1.4
		c-1.3,0-2.5,0.4-3.4,1.4c-0.9,0.9-1.4,2-1.4,3.3c0,1.3,0.5,2.4,1.4,3.4C260.9,65,262,65.5,263.3,65.5z"/>
	<path class="st0" d="M268.7,108.4l-1.1-1c-0.2-0.2-0.3-0.4-0.4-0.7c-0.1-0.3-0.1-0.5-0.1-0.9V73.3c0-0.3,0-0.6,0.1-0.8
		c0.1-0.2,0.2-0.4,0.4-0.7l1.1-1v-0.6h-10.8v0.6l1.1,1c0.2,0.2,0.4,0.5,0.5,0.7c0.1,0.2,0.1,0.5,0.1,0.8v32.5c0,0.3,0,0.6-0.1,0.9
		c-0.1,0.2-0.3,0.5-0.5,0.7l-1.1,1v0.6h10.8V108.4z"/>
	<path class="st0" d="M280.8,105.8c0,0.3,0,0.6-0.1,0.9c-0.1,0.2-0.2,0.5-0.4,0.7l-1,1v0.6h10.7v-0.6l-1-1c-0.2-0.2-0.3-0.4-0.4-0.7
		c-0.1-0.3-0.1-0.5-0.1-0.9V77.2h1.9c0.3,0,0.6,0.1,0.8,0.4c0.2,0.2,0.3,0.6,0.3,0.9v0.6l0.6,0.1l4-8.9h-7.6v-9.1h-0.6
		c-2.1,3.1-4.2,5.9-6.3,8.4c-2.1,2.5-4.3,4.9-6.6,7v0.6h6V105.8z"/>
	<path class="st0" d="M332.6,108.4l-1-1c-0.2-0.2-0.3-0.4-0.4-0.7c-0.1-0.3-0.1-0.5-0.1-0.9V82.9c0-4.6-0.9-7.9-2.7-9.8
		c-1.8-1.9-4.8-2.9-9-2.9h-11.8l-5,8.8l0.4,0.3l1.6-1.3c0.3-0.3,0.6-0.5,0.9-0.6c0.3-0.1,0.6-0.2,0.9-0.2h12.5c1.9,0,3.2,0.3,3.8,1
		c0.7,0.6,1,1.8,1,3.6v20.5h-9.8c-2.5,0-4.3-0.5-5.6-1.5c-1.2-1-1.8-2.6-1.8-4.7c0-1.8,0.6-3.3,1.8-4.5c1.2-1.1,2.8-1.7,4.8-1.7
		c0.6,0,1.1,0.1,1.4,0.3c0.3,0.2,0.5,0.5,0.5,0.9v0.2h0.5l4.3-8.1h-6.2c-4.3,0-7.7,1.2-10.2,3.5c-2.5,2.3-3.7,5.5-3.7,9.5
		c0,4.2,1.2,7.4,3.6,9.6c2.4,2.2,5.9,3.3,10.5,3.3h18.8V108.4z"/>
	<path class="st0" d="M362.7,80.8v0.6l0.6,0.1l3.4-7.1c-1-1.3-2.2-2.3-3.7-3.1c-1.4-0.8-3-1.1-4.6-1.1h-16.1v0.6l1.1,1
		c0.2,0.2,0.4,0.5,0.5,0.7c0.1,0.2,0.1,0.5,0.1,0.8v32.5c0,0.3,0,0.6-0.1,0.9c-0.1,0.2-0.3,0.5-0.5,0.7l-1.1,1v0.6h10.8v-0.6l-1.1-1
		c-0.2-0.2-0.3-0.4-0.4-0.7c-0.1-0.3-0.1-0.5-0.1-0.9V77.5h6c1.5,0,2.7,0.3,3.7,1C362.2,79.1,362.7,79.9,362.7,80.8z"/>
	<path class="st0" d="M405.9,91.5c-2.2-2.7-5.7-4.7-10.3-6.2c-2.1-0.7-4.9-1.4-8.3-2.2c-5.1-1.2-7.7-2.6-7.7-4
		c0-0.7,0.4-1.2,1.1-1.5c0.7-0.3,1.9-0.5,3.6-0.5H402c0.3,0,0.6,0.2,0.7,0.4c0.2,0.2,0.3,0.5,0.3,0.9v0.6l0.5,0.1l4.3-8.9h-23
		c-3.9,0-7,0.9-9.3,2.6c-2.4,1.7-3.6,4-3.6,6.8c0,1.6,0.5,3.2,1.4,4.6c0.9,1.4,2.2,2.5,3.8,3.1c1.5,0.6,3.8,1.3,7.2,2.1
		c3.3,0.8,5.6,1.3,6.9,1.7c3.9,1,6.5,2.2,7.7,3.5c1.3,1.3,1.9,3.3,1.9,5.8c0,0.2,0,0.4,0,0.8c0,0.3,0,0.6,0,0.8h-29.2l-3.2,7h40.9
		v-7.2C409.3,97.6,408.1,94.2,405.9,91.5z"/>
	<path class="st0" d="M216.1,126.3c0-0.1,0-0.1,0-0.2v-4c0-1.3-0.3-2.3-1-2.9c-0.7-0.7-1.6-1-2.8-1h-1.3l-0.6,0.6l-0.1,0v-4
		c0-0.1,0-0.1,0-0.2c0-0.1,0.1-0.1,0.1-0.1l0.3-0.2V114h-2.5v0.1l0.2,0.2c0.1,0,0.1,0.1,0.1,0.2c0,0.1,0,0.1,0,0.2v11.4
		c0,0.1,0,0.1,0,0.2c0,0.1-0.1,0.1-0.1,0.2l-0.2,0.2v0.1h2.5v-0.1l-0.3-0.2c0,0-0.1-0.1-0.1-0.2c0-0.1,0-0.1,0-0.2v-6.4h2
		c0.7,0,1.2,0.2,1.6,0.6c0.4,0.4,0.5,1,0.5,1.8v4c0,0.1,0,0.1,0,0.2c0,0.1-0.1,0.1-0.1,0.2l-0.3,0.2v0.1h2.5v-0.1l-0.3-0.2
		C216.1,126.4,216.1,126.3,216.1,126.3z"/>
	<path class="st0" d="M225.3,126.3c0-0.1,0-0.1,0-0.2v-5.1c0-1-0.2-1.8-0.6-2.2c-0.4-0.4-1.1-0.6-2.1-0.6h-2.7l-1.1,2l0.1,0.1
		l0.4-0.3c0.1-0.1,0.1-0.1,0.2-0.1c0.1,0,0.1,0,0.2,0h2.9c0.4,0,0.7,0.1,0.9,0.2c0.2,0.1,0.2,0.4,0.2,0.8v4.6h-2.2
		c-0.6,0-1-0.1-1.3-0.3c-0.3-0.2-0.4-0.6-0.4-1.1c0-0.4,0.1-0.7,0.4-1c0.3-0.3,0.6-0.4,1.1-0.4c0.1,0,0.2,0,0.3,0.1
		c0.1,0,0.1,0.1,0.1,0.2v0h0.1l1-1.8h-1.4c-1,0-1.8,0.3-2.3,0.8c-0.6,0.5-0.8,1.2-0.8,2.1c0,0.9,0.3,1.7,0.8,2.1
		c0.6,0.5,1.3,0.7,2.4,0.7h4.3v-0.1l-0.2-0.2C225.4,126.4,225.4,126.3,225.3,126.3z"/>
	<path class="st0" d="M235.8,126.3c0-0.1,0-0.1,0-0.2v-4c0-1.3-0.3-2.3-1-2.9c-0.6-0.7-1.6-1-2.9-1h-1.3l-0.6,0.6l0,0v-0.6h-2v0.1
		l0.2,0.2c0.1,0.1,0.1,0.1,0.1,0.2c0,0.1,0,0.1,0,0.2v7.3c0,0.1,0,0.1,0,0.2c0,0.1-0.1,0.1-0.1,0.2l-0.2,0.2v0.1h2.5v-0.1l-0.3-0.2
		c0,0-0.1-0.1-0.1-0.2c0-0.1,0-0.1,0-0.2v-6.4h2h0c0.7,0,1.2,0.2,1.5,0.6c0.4,0.4,0.5,1,0.5,1.8v4c0,0.1,0,0.1,0,0.2
		c0,0.1-0.1,0.1-0.1,0.2l-0.3,0.2v0.1h2.5v-0.1l-0.3-0.2C235.9,126.4,235.9,126.3,235.8,126.3z"/>
	<path class="st0" d="M244.5,114.1l0.2,0.2c0.1,0.1,0.1,0.1,0.1,0.1c0,0,0,0.1,0,0.2v3.4h-2c-1.6,0-2.8,0.4-3.7,1.2
		c-0.9,0.8-1.3,1.9-1.3,3.2c0,1.2,0.4,2.3,1.3,3.1c0.8,0.8,1.9,1.2,3.3,1.2h0.6l1.1-2l-0.1-0.1l-0.4,0.3c-0.1,0.1-0.2,0.1-0.2,0.1
		c-0.1,0-0.1,0-0.2,0h-0.7c-0.9,0-1.7-0.2-2.2-0.7c-0.5-0.5-0.8-1.2-0.8-2.1c0-0.9,0.3-1.6,0.8-2c0.6-0.5,1.4-0.7,2.4-0.7h2v6.4
		c0,0.1,0,0.1,0,0.2c0,0.1-0.1,0.1-0.1,0.2l-0.2,0.2v0.1h2.4v-0.1l-0.2-0.2c0,0-0.1-0.1-0.1-0.2c0-0.1,0-0.1,0-0.2v-11.4
		c0-0.1,0-0.1,0-0.2c0-0.1,0.1-0.1,0.1-0.1l0.2-0.2V114h-2.4V114.1z"/>
	<path class="st0" d="M255.8,125c-0.1,0.1-0.2,0.1-0.2,0.1c-0.1,0-0.2,0-0.3,0h-1.9c-1,0-1.7-0.2-2.2-0.7c-0.5-0.5-0.8-1.2-0.8-2.1
		c0-0.9,0.3-1.6,0.8-2.1c0.5-0.5,1.3-0.7,2.3-0.7h1.2c0.1,0,0.1,0,0.2,0.1c0,0.1,0.1,0.1,0.1,0.2v0.1l0.1,0l1-2h-2.6
		c-1.5,0-2.7,0.4-3.5,1.2c-0.9,0.8-1.3,1.9-1.3,3.2c0,1.3,0.4,2.4,1.2,3.1c0.8,0.8,1.9,1.1,3.3,1.1h1.9l1.1-2l-0.1-0.1L255.8,125z"
		/>
	<path class="st0" d="M262.9,118.3c-0.3-0.2-0.7-0.3-1-0.3h-3.7v0.1l0.2,0.2c0.1,0.1,0.1,0.1,0.1,0.2c0,0.1,0,0.1,0,0.2v7.3
		c0,0.1,0,0.1,0,0.2c0,0.1-0.1,0.1-0.1,0.2l-0.2,0.2v0.1h2.5v-0.1l-0.3-0.2c0,0-0.1-0.1-0.1-0.2c0-0.1,0-0.1,0-0.2v-6.3h1.4
		c0.3,0,0.6,0.1,0.9,0.2c0.2,0.1,0.3,0.3,0.3,0.5v0.1l0.1,0l0.8-1.6C263.5,118.8,263.2,118.5,262.9,118.3z"/>
	<path class="st0" d="M271.9,126.3c0-0.1,0-0.1,0-0.2v-5.1c0-1-0.2-1.8-0.6-2.2c-0.4-0.4-1.1-0.6-2.1-0.6h-2.7l-1.1,2l0.1,0.1
		l0.4-0.3c0.1-0.1,0.1-0.1,0.2-0.1c0.1,0,0.1,0,0.2,0h2.9c0.4,0,0.7,0.1,0.9,0.2c0.2,0.1,0.2,0.4,0.2,0.8v4.6H268
		c-0.6,0-1-0.1-1.3-0.3c-0.3-0.2-0.4-0.6-0.4-1.1c0-0.4,0.1-0.7,0.4-1c0.3-0.3,0.6-0.4,1.1-0.4c0.1,0,0.2,0,0.3,0.1
		c0.1,0,0.1,0.1,0.1,0.2v0h0.1l1-1.8h-1.4c-1,0-1.8,0.3-2.3,0.8c-0.6,0.5-0.8,1.2-0.8,2.1c0,0.9,0.3,1.7,0.8,2.1
		c0.6,0.5,1.3,0.7,2.4,0.7h4.3v-0.1l-0.2-0.2C272,126.4,272,126.3,271.9,126.3z"/>
	<path class="st0" d="M276.6,116.5c0-0.3,0.1-0.5,0.3-0.7c0.2-0.2,0.4-0.2,0.7-0.2h0.4c0.1,0,0.1,0,0.2,0.1c0,0.1,0.1,0.1,0.1,0.2
		v0.1l0.1,0l0.9-2h-1.4c-1,0-1.7,0.2-2.2,0.7c-0.5,0.5-0.8,1.2-0.8,2v1.3h-0.7l-0.7,1.6h1.4v6.4c0,0.1,0,0.1,0,0.2
		c0,0.1-0.1,0.1-0.1,0.2l-0.2,0.2v0.1h2.5v-0.1l-0.2-0.2c-0.1-0.1-0.1-0.1-0.1-0.2c0-0.1,0-0.1,0-0.2v-6.4h0.9c0.1,0,0.1,0,0.2,0.1
		c0.1,0.1,0.1,0.1,0.1,0.2v0.1l0.1,0l0.9-2h-2.2V116.5z"/>
	<path class="st0" d="M282.4,116.1h-0.1c-0.5,0.7-1,1.3-1.4,1.9c-0.5,0.6-1,1.1-1.5,1.6v0.1h1.4v6.4c0,0.1,0,0.1,0,0.2
		c0,0.1-0.1,0.1-0.1,0.2l-0.2,0.2v0.1h2.5v-0.1l-0.2-0.2c0,0-0.1-0.1-0.1-0.2c0-0.1,0-0.1,0-0.2v-6.4h0.4c0.1,0,0.1,0,0.2,0.1
		c0,0.1,0.1,0.1,0.1,0.2v0.1l0.1,0l0.9-2h-1.7V116.1z"/>
	<path class="st0" d="M290.4,123.8l3-5.7h-3.1c-1.7,0-3,0.4-3.9,1.1c-0.9,0.8-1.4,1.9-1.4,3.3c0,1.3,0.4,2.4,1.3,3.1
		c0.9,0.8,2,1.1,3.5,1.1h2.4l1.2-2l-0.1-0.1l-0.4,0.3c-0.1,0.1-0.2,0.1-0.2,0.1c-0.1,0-0.2,0-0.3,0h-2.5c-1,0-1.8-0.2-2.3-0.7
		c-0.5-0.5-0.8-1.2-0.8-2.1c0-0.9,0.2-1.5,0.8-2c0.5-0.5,1.2-0.7,2.1-0.7h1.2l-2.2,4.1H290.4z"/>
	<path class="st0" d="M301.3,114.1l0.2,0.2c0.1,0.1,0.1,0.1,0.1,0.1c0,0,0,0.1,0,0.2v3.4h-2c-1.6,0-2.8,0.4-3.7,1.2
		c-0.9,0.8-1.3,1.9-1.3,3.2c0,1.2,0.4,2.3,1.3,3.1c0.8,0.8,1.9,1.2,3.3,1.2h0.6l1.1-2l-0.1-0.1l-0.4,0.3c-0.1,0.1-0.2,0.1-0.2,0.1
		c-0.1,0-0.1,0-0.2,0h-0.7c-0.9,0-1.7-0.2-2.2-0.7c-0.5-0.5-0.8-1.2-0.8-2.1c0-0.9,0.3-1.6,0.8-2c0.6-0.5,1.4-0.7,2.4-0.7h2v6.4
		c0,0.1,0,0.1,0,0.2c0,0.1-0.1,0.1-0.1,0.2l-0.2,0.2v0.1h2.4v-0.1l-0.2-0.2c0,0-0.1-0.1-0.1-0.2c0-0.1,0-0.1,0-0.2v-11.4
		c0-0.1,0-0.1,0-0.2c0-0.1,0.1-0.1,0.1-0.1l0.2-0.2V114h-2.4V114.1z"/>
	<path class="st0" d="M313,116.7c0.2-0.2,0.3-0.5,0.3-0.8c0-0.3-0.1-0.5-0.3-0.7c-0.2-0.2-0.5-0.3-0.8-0.3c-0.3,0-0.6,0.1-0.8,0.3
		c-0.2,0.2-0.3,0.4-0.3,0.7c0,0.3,0.1,0.5,0.3,0.8c0.2,0.2,0.5,0.3,0.8,0.3C312.5,117,312.8,116.9,313,116.7z"/>
	<path class="st0" d="M311,118.2l0.2,0.2c0.1,0.1,0.1,0.1,0.1,0.2c0,0.1,0,0.1,0,0.2v7.3c0,0.1,0,0.1,0,0.2c0,0.1-0.1,0.1-0.1,0.2
		l-0.2,0.2v0.1h2.5v-0.1l-0.3-0.2c0,0-0.1-0.1-0.1-0.2c0-0.1,0-0.1,0-0.2v-7.3c0-0.1,0-0.1,0-0.2c0-0.1,0.1-0.1,0.1-0.2l0.3-0.2
		v-0.1H311V118.2z"/>
	<path class="st0" d="M323.6,126.3c0-0.1,0-0.1,0-0.2v-4c0-1.3-0.3-2.3-1-2.9c-0.6-0.7-1.6-1-2.9-1h-1.3l-0.6,0.6l0,0v-0.6h-2v0.1
		l0.2,0.2c0.1,0.1,0.1,0.1,0.1,0.2c0,0.1,0,0.1,0,0.2v7.3c0,0.1,0,0.1,0,0.2c0,0.1-0.1,0.1-0.1,0.2l-0.2,0.2v0.1h2.5v-0.1l-0.3-0.2
		c0,0-0.1-0.1-0.1-0.2c0-0.1,0-0.1,0-0.2v-6.4h2h0c0.7,0,1.2,0.2,1.5,0.6c0.4,0.4,0.5,1,0.5,1.8v4c0,0.1,0,0.1,0,0.2
		c0,0.1-0.1,0.1-0.1,0.2l-0.3,0.2v0.1h2.5v-0.1l-0.3-0.2C323.7,126.4,323.7,126.3,323.6,126.3z"/>
	<path class="st0" d="M331.3,121.5c-0.5-0.1-1.1-0.3-1.9-0.5c-1.2-0.3-1.8-0.6-1.8-0.9c0-0.2,0.1-0.3,0.3-0.3
		c0.2-0.1,0.4-0.1,0.8-0.1h4c0.1,0,0.1,0,0.2,0.1c0,0.1,0.1,0.1,0.1,0.2v0.1l0.1,0l1-2h-5.3c-0.9,0-1.6,0.2-2.1,0.6
		c-0.5,0.4-0.8,0.9-0.8,1.5c0,0.4,0.1,0.7,0.3,1c0.2,0.3,0.5,0.6,0.9,0.7c0.3,0.1,0.9,0.3,1.6,0.5c0.8,0.2,1.3,0.3,1.6,0.4
		c0.9,0.2,1.5,0.5,1.8,0.8c0.3,0.3,0.4,0.7,0.4,1.3c0,0,0,0.1,0,0.2c0,0.1,0,0.1,0,0.2h-6.7l-0.7,1.6h9.4v-1.6
		c0-0.9-0.3-1.7-0.8-2.3C333.1,122.3,332.3,121.8,331.3,121.5z"/>
	<path class="st0" d="M338.6,116.1h-0.1c-0.5,0.7-1,1.3-1.4,1.9c-0.5,0.6-1,1.1-1.5,1.6v0.1h1.4v6.4c0,0.1,0,0.1,0,0.2
		c0,0.1-0.1,0.1-0.1,0.2l-0.2,0.2v0.1h2.5v-0.1l-0.2-0.2c0,0-0.1-0.1-0.1-0.2c0-0.1,0-0.1,0-0.2v-6.4h0.4c0.1,0,0.1,0,0.2,0.1
		c0,0.1,0.1,0.1,0.1,0.2v0.1l0.1,0l0.9-2h-1.7V116.1z"/>
	<path class="st0" d="M346.5,118.3c-0.3-0.2-0.7-0.3-1-0.3h-3.7v0.1l0.2,0.2c0.1,0.1,0.1,0.1,0.1,0.2c0,0.1,0,0.1,0,0.2v7.3
		c0,0.1,0,0.1,0,0.2c0,0.1-0.1,0.1-0.1,0.2l-0.2,0.2v0.1h2.5v-0.1l-0.3-0.2c0,0-0.1-0.1-0.1-0.2c0-0.1,0-0.1,0-0.2v-6.3h1.4
		c0.3,0,0.6,0.1,0.9,0.2c0.2,0.1,0.3,0.3,0.3,0.5v0.1l0.1,0l0.8-1.6C347.1,118.8,346.8,118.5,346.5,118.3z"/>
	<path class="st0" d="M354.3,118.2l0.3,0.2c0,0.1,0.1,0.1,0.1,0.2c0,0.1,0,0.1,0,0.2v6.4h-2c-0.8,0-1.3-0.2-1.6-0.5
		c-0.3-0.4-0.5-1-0.5-1.8v-4c0-0.1,0-0.1,0-0.2c0,0,0.1-0.1,0.1-0.2l0.3-0.2v-0.1h-2.5v0.1l0.2,0.2c0.1,0.1,0.1,0.1,0.1,0.2
		c0,0.1,0,0.1,0,0.2v4c0,1.3,0.3,2.3,1,3c0.6,0.7,1.6,1,2.9,1h1.3l0.7-0.7l0,0v0.6h2v-0.1l-0.3-0.2c0,0-0.1-0.1-0.1-0.2
		c0-0.1,0-0.1,0-0.2v-7.3c0-0.1,0-0.1,0-0.2c0-0.1,0.1-0.1,0.1-0.2l0.3-0.2v-0.1h-2.5V118.2z"/>
	<path class="st0" d="M372.7,126.3c0-0.1,0-0.1,0-0.2v-4c0-1.4-0.3-2.4-1-3c-0.7-0.6-1.8-0.9-3.2-0.9h-2.7l-0.5,0.6
		c-0.3-0.2-0.6-0.4-0.9-0.5c-0.3-0.1-0.7-0.2-1.2-0.2h-1.3l-0.6,0.6l0,0v-0.6h-2v0.1l0.2,0.2c0.1,0.1,0.1,0.1,0.1,0.2
		c0,0.1,0,0.1,0,0.2v7.3c0,0.1,0,0.1,0,0.2c0,0.1-0.1,0.1-0.1,0.2l-0.2,0.2v0.1h2.5v-0.1l-0.3-0.2c0,0-0.1-0.1-0.1-0.2
		c0-0.1,0-0.1,0-0.2v-6.4h2c0.7,0,1.2,0.2,1.6,0.6c0.3,0.4,0.5,1,0.5,1.8v4c0,0.1,0,0.1,0,0.2c0,0.1-0.1,0.1-0.1,0.2l-0.3,0.2v0.1
		h2.5v-0.1l-0.3-0.2c0,0-0.1-0.1-0.1-0.2c0-0.1,0-0.1,0-0.2v-4c0-0.6,0-1-0.1-1.4c-0.1-0.4-0.2-0.7-0.4-1h2.2c0.8,0,1.4,0.2,1.8,0.6
		c0.4,0.4,0.6,1,0.6,1.8v4c0,0.1,0,0.1,0,0.2c0,0.1-0.1,0.1-0.1,0.2l-0.3,0.2v0.1h2.5v-0.1l-0.3-0.2
		C372.8,126.4,372.7,126.3,372.7,126.3z"/>
	<path class="st0" d="M380.2,123.8l3-5.7h-3.1c-1.7,0-3,0.4-3.9,1.1c-0.9,0.8-1.4,1.9-1.4,3.3c0,1.3,0.4,2.4,1.3,3.1
		c0.9,0.8,2,1.1,3.5,1.1h2.4l1.2-2l-0.1-0.1l-0.4,0.3c-0.1,0.1-0.2,0.1-0.2,0.1c-0.1,0-0.2,0-0.3,0h-2.5c-1,0-1.8-0.2-2.3-0.7
		c-0.5-0.5-0.8-1.2-0.8-2.1c0-0.9,0.2-1.5,0.8-2c0.5-0.5,1.2-0.7,2.1-0.7h1.2l-2.2,4.1H380.2z"/>
	<path class="st0" d="M392.9,126.3c0-0.1,0-0.1,0-0.2v-4c0-1.3-0.3-2.3-1-2.9c-0.6-0.7-1.6-1-2.9-1h-1.3l-0.6,0.6l0,0v-0.6h-2v0.1
		l0.2,0.2c0.1,0.1,0.1,0.1,0.1,0.2c0,0.1,0,0.1,0,0.2v7.3c0,0.1,0,0.1,0,0.2c0,0.1-0.1,0.1-0.1,0.2l-0.2,0.2v0.1h2.5v-0.1l-0.3-0.2
		c0,0-0.1-0.1-0.1-0.2c0-0.1,0-0.1,0-0.2v-6.4h2h0c0.7,0,1.2,0.2,1.5,0.6c0.4,0.4,0.5,1,0.5,1.8v4c0,0.1,0,0.1,0,0.2
		c0,0.1-0.1,0.1-0.1,0.2l-0.3,0.2v0.1h2.5v-0.1l-0.3-0.2C393,126.4,393,126.3,392.9,126.3z"/>
	<path class="st0" d="M397.7,116.1h-0.1c-0.5,0.7-1,1.3-1.4,1.9c-0.5,0.6-1,1.1-1.5,1.6v0.1h1.4v6.4c0,0.1,0,0.1,0,0.2
		c0,0.1-0.1,0.1-0.1,0.2l-0.2,0.2v0.1h2.5v-0.1l-0.2-0.2c0,0-0.1-0.1-0.1-0.2c0-0.1,0-0.1,0-0.2v-6.4h0.4c0.1,0,0.1,0,0.2,0.1
		c0,0.1,0.1,0.1,0.1,0.2v0.1l0.1,0l0.9-2h-1.7V116.1z"/>
	<path class="st0" d="M405.9,121.5c-0.5-0.1-1.1-0.3-1.9-0.5c-1.2-0.3-1.8-0.6-1.8-0.9c0-0.2,0.1-0.3,0.3-0.3
		c0.2-0.1,0.4-0.1,0.8-0.1h4c0.1,0,0.1,0,0.2,0.1c0,0.1,0.1,0.1,0.1,0.2v0.1l0.1,0l1-2h-5.3c-0.9,0-1.6,0.2-2.1,0.6
		c-0.5,0.4-0.8,0.9-0.8,1.5c0,0.4,0.1,0.7,0.3,1c0.2,0.3,0.5,0.6,0.9,0.7c0.3,0.1,0.9,0.3,1.6,0.5c0.8,0.2,1.3,0.3,1.6,0.4
		c0.9,0.2,1.5,0.5,1.8,0.8c0.3,0.3,0.4,0.7,0.4,1.3c0,0,0,0.1,0,0.2c0,0.1,0,0.1,0,0.2h-6.7l-0.7,1.6h9.4v-1.6
		c0-0.9-0.3-1.7-0.8-2.3C407.7,122.3,407,121.8,405.9,121.5z"/>
</g>
</svg>
